<?xml version="1.0" encoding="UTF-8"?>
<svg width="24px" height="24px" viewBox="0 0 24 24" version="1.1" xmlns="http://www.w3.org/2000/svg" xmlns:xlink="http://www.w3.org/1999/xlink">
    <title>btn_approval_reject</title>
    <g id="btn_approval_reject" stroke="none" stroke-width="1" fill="none" fill-rule="evenodd">
        <g id="编组" transform="translate(2.000000, 2.000000)" fill="#FF0000">
            <path d="M19.2403839,1.33007036 C19.9497573,2.06464794 19.9293252,3.23520143 19.1947476,3.94457475 L3.8989384,18.715566 C3.16436083,19.4249393 1.99380734,19.4045072 1.28443402,18.6699296 C0.575060699,17.9353521 0.595492786,16.7647986 1.33007036,16.0554253 L16.6258795,1.28443402 C17.3604571,0.575060699 18.5310106,0.595492786 19.2403839,1.33007036 Z" id="矩形"></path>
            <path d="M1.28443402,1.33007036 C0.575060699,2.06464794 0.595492786,3.23520143 1.33007036,3.94457475 L16.6258795,18.715566 C17.3604571,19.4249393 18.5310106,19.4045072 19.2403839,18.6699296 C19.9497573,17.9353521 19.9293252,16.7647986 19.1947476,16.0554253 L3.8989384,1.28443402 C3.16436083,0.575060699 1.99380734,0.595492786 1.28443402,1.33007036 Z" id="矩形备份-2"></path>
        </g>
    </g>
</svg>