<?xml version="1.0" encoding="UTF-8"?>
<svg width="64px" height="64px" viewBox="0 0 64 64" version="1.1" xmlns="http://www.w3.org/2000/svg" xmlns:xlink="http://www.w3.org/1999/xlink">
    <title>btn_approval_appendix</title>
    <defs>
        <polygon id="path-1" points="0 0 31 0 31 32 0 32"></polygon>
    </defs>
    <g id="btn_approval_appendix" stroke="none" stroke-width="1" fill="none" fill-rule="evenodd">
        <rect id="矩形" stroke="#CCCCCC" stroke-width="3" x="1.5" y="1.5" width="61" height="61" rx="8"></rect>
        <g id="fujian" transform="translate(17.000000, 16.000000)">
            <mask id="mask-2" fill="white">
                <use xlink:href="#path-1"></use>
            </mask>
            <g id="Clip-2"></g>
            <path d="M11.586296,32 C6.90051603,32.0011579 2.67547869,29.1645783 0.882152932,24.8136909 C-0.911121004,20.4625953 0.0803747399,15.4541398 3.39429108,12.1245795 L13.0662587,2.40345704 C16.254664,-0.801152346 21.4238325,-0.801152346 24.6120305,2.40345704 C27.8002804,5.60791017 27.8002804,10.8033493 24.6120305,14.0079587 L14.944364,23.7288728 C13.0812351,25.5337085 10.1233825,25.5062599 8.29362637,23.667413 C6.46387028,21.8284098 6.43676778,18.8554728 8.23247731,16.982875 L17.9001956,7.26180466 C18.2356345,6.92466102 18.7246715,6.79304323 19.1829785,6.91632749 C19.6410783,7.03982008 19.999163,7.39951635 20.1218239,7.86015258 C20.2446921,8.32078882 20.1137398,8.81231122 19.7780936,9.14945485 L10.1063333,18.8705773 C9.28895689,19.6921077 9.28895689,21.023911 10.1063333,21.8454936 C10.9235542,22.667024 12.2488305,22.667024 13.0662587,21.8454936 L22.7381746,12.1245795 C24.8161026,9.94884934 24.781486,6.50230698 22.6602354,4.36928622 C20.5390367,2.23605712 17.110129,2.19938956 14.944364,4.28688838 L5.27239638,14.0079587 C1.78420522,17.5126796 1.7831688,23.1959953 5.27037536,26.7019662 C8.75737463,30.207885 14.4119526,30.2087183 17.9001956,26.7039975 L28.7826556,15.7705017 C29.3067238,15.2929901 30.1113521,15.3129385 30.6113752,15.8156591 C31.1115538,16.3184317 31.1314014,17.126941 30.6565115,17.653881 L19.7780936,28.5916476 C17.6094785,30.7808156 14.6599691,32.0080851 11.586296,32 Z" id="Fill-1" fill="#666666" mask="url(#mask-2)"></path>
        </g>
    </g>
</svg>