<?xml version="1.0" encoding="UTF-8"?>
<svg width="24px" height="24px" viewBox="0 0 24 24" version="1.1" xmlns="http://www.w3.org/2000/svg" xmlns:xlink="http://www.w3.org/1999/xlink">
    <title>btn_approval_agree</title>
    <defs>
        <filter id="filter-1">
            <feColorMatrix in="SourceGraphic" type="matrix" values="0 0 0 0 0.215686 0 0 0 0 0.341176 0 0 0 0 0.776471 0 0 0 1.000000 0"></feColorMatrix>
        </filter>
    </defs>
    <g id="btn_approval_agree" stroke="none" stroke-width="1" fill="none" fill-rule="evenodd">
        <g filter="url(#filter-1)" id="审批图标/等待备份-2">
            <g transform="translate(2.000000, 5.000000)">
                <path d="M19.4971394,0.408157421 L19.5121366,0.423150297 L19.5121366,0.423150297 L19.5893494,0.501468363 C20.1506794,1.07083332 20.1508102,1.98542406 19.5896432,2.55494962 L8.75188248,13.5541377 C8.30007966,14.0126701 7.62531194,14.1181942 7.07093379,13.8681717 C6.82947001,13.8023674 6.60027855,13.6755736 6.40889596,13.4869355 L6.39350678,13.4715455 L6.39350678,13.4715455 L0.410480096,7.4008616 C-0.150757188,6.83140164 -0.150734161,5.91680731 0.410531797,5.34737561 L0.495788357,5.26087867 C1.06285734,4.68555951 1.98894591,4.67887142 2.56426507,5.24594041 C2.56929787,5.25090104 2.57429465,5.25589807 2.57925502,5.26093112 L7.621,10.376 L17.4286653,0.4234484 C17.9956361,-0.151967447 18.9217235,-0.158813451 19.4971394,0.408157421 Z" id="形状结合备份" fill="#FFFFFF"></path>
            </g>
        </g>
    </g>
</svg>